<svg width="10" height="19" viewBox="0 0 10 19" fill="none" xmlns="http://www.w3.org/2000/svg">
<path d="M10 9.5C9.99023 9.1582 9.86328 8.86523 9.59961 8.60156L2.00195 1.16992C1.77734 0.955078 1.51367 0.837891 1.19141 0.837891C0.537109 0.837891 0.0292969 1.3457 0.0292969 2C0.0292969 2.3125 0.15625 2.60547 0.380859 2.83008L7.2168 9.5L0.380859 16.1699C0.15625 16.3945 0.0292969 16.6777 0.0292969 17C0.0292969 17.6543 0.537109 18.1621 1.19141 18.1621C1.50391 18.1621 1.77734 18.0449 2.00195 17.8301L9.59961 10.3887C9.87305 10.1348 10 9.8418 10 9.5Z" fill="#0F993E"/>
</svg>
