<svg width="10" height="19" viewBox="0 0 10 19" fill="none" xmlns="http://www.w3.org/2000/svg">
<path d="M0 9.5C0 9.8418 0.126953 10.1348 0.400391 10.3887L7.99805 17.8301C8.21289 18.0449 8.48633 18.1621 8.80859 18.1621C9.45312 18.1621 9.9707 17.6543 9.9707 17C9.9707 16.6777 9.83398 16.3945 9.61914 16.1699L2.77344 9.5L9.61914 2.83008C9.83398 2.60547 9.9707 2.3125 9.9707 2C9.9707 1.3457 9.45312 0.837891 8.80859 0.837891C8.48633 0.837891 8.21289 0.955078 7.99805 1.16992L0.400391 8.60156C0.126953 8.86523 0 9.1582 0 9.5Z" fill="#0F993E"/>
</svg>
