<svg width="16" height="22" viewBox="0 0 16 22" fill="none" xmlns="http://www.w3.org/2000/svg">
<path d="M1.77783 10.9466C1.77783 11.2807 1.90761 11.5657 2.17714 11.8212L9.9636 19.3189C10.1732 19.5351 10.4527 19.6432 10.7722 19.6432C11.4211 19.6432 11.9302 19.1519 11.9302 18.5033C11.9302 18.1888 11.8004 17.9039 11.5808 17.6877L4.56299 10.9466L11.5808 4.20551C11.8004 3.97949 11.9302 3.69452 11.9302 3.38007C11.9302 2.74133 11.4211 2.25 10.7722 2.25C10.4527 2.25 10.1732 2.35809 9.9636 2.57428L2.17714 10.072C1.90761 10.3275 1.78781 10.6125 1.77783 10.9466Z" fill="#2B3F6C"/>
</svg>
