<svg width="25" height="24" viewBox="0 0 25 24" fill="none" xmlns="http://www.w3.org/2000/svg">
<g opacity="0.35">
<path fill-rule="evenodd" clip-rule="evenodd" d="M7.25 10.4167C7.25 5.62281 11.1749 1.75 16 1.75C20.8251 1.75 24.75 5.62281 24.75 10.4167C24.75 13.3982 23.0113 16.3409 21.1686 18.4829C20.236 19.5669 19.2463 20.482 18.3733 21.1328C17.9374 21.4577 17.5186 21.7258 17.1405 21.9162C16.786 22.0947 16.3812 22.25 16 22.25C15.6188 22.25 15.214 22.0947 14.8595 21.9162C14.4814 21.7258 14.0626 21.4577 13.6267 21.1328C12.7537 20.482 11.764 19.5669 10.8314 18.4829C8.98872 16.3409 7.25 13.3982 7.25 10.4167ZM16 13C14.3431 13 13 11.6569 13 10C13 8.34315 14.3431 7 16 7C17.6569 7 19 8.34315 19 10C19 11.6569 17.6569 13 16 13Z" fill="#2B3F6C"/>
</g>
</svg>
